# xmcd CD database file
#
# Track frame offsets:
#	200
#	15897
#	35090
#	49782
#	63520
#	85732
#	104407
#	123002
#	141212
#	153805
#
# Disc length: 2332 seconds
#
# Revision: 0
# Processed by: cddbd v1.4PL0 Copyright (c) Steve Scherf et al.
# Submitted via: CDex 1.50beta10
#
DISCID=75091a0a
DTITLE=Travis Haddix - A Big Ole Goodun'
DYEAR=1994
DGENRE=Blues
TTITLE0=A Big Ole Goodun'
TTITLE1=Make Me Say Please
TTITLE2=Texas Toothpick
TTITLE3=Little Sister
TTITLE4=Katlin
TTITLE5=Bad To Worse
TTITLE6=My Dessert
TTITLE7=Don't Take My Word For It
TTITLE8=You Can't Have Your Cake (And Eat It Too)
TTITLE9=(She Called Me) Knucklehead
EXTD=YEAR: 1994
EXTT0=
EXTT1=
EXTT2=
EXTT3=
EXTT4=
EXTT5=
EXTT6=
EXTT7=
EXTT8=
EXTT9=
PLAYORDER=
